<svg version="1.1" id="Layer_1" xmlns="http://www.w3.org/2000/svg" xmlns:xlink="http://www.w3.org/1999/xlink" x="0px" y="0px"
   width="100%" viewBox="0 0 1500 1500" enable-background="new 0 0 1500 1500" xml:space="preserve">
<path fill="#0F1446" opacity="1.000000" stroke="none" 
  d="
M601.921021,1447.025635 
  C586.733643,1443.014160 571.962158,1439.046997 557.201904,1435.038452 
  C532.654724,1428.371582 507.992493,1422.091064 483.608032,1414.872925 
  C461.716522,1408.392944 439.979614,1401.304932 418.462646,1393.672729 
  C400.752228,1387.390747 383.216125,1380.473389 366.062134,1372.809326 
  C350.470490,1365.843384 335.247589,1357.940552 320.327881,1349.615967 
  C307.373413,1342.387817 294.712646,1334.500610 282.579681,1325.969360 
  C270.087616,1317.185547 258.269165,1307.420776 246.393524,1297.792236 
  C239.756180,1292.410889 233.066269,1286.920776 227.341095,1280.624146 
  C215.552658,1267.659058 203.663757,1254.668457 193.172684,1240.671509 
  C181.265488,1224.785400 170.095367,1208.228516 159.996368,1191.140747 
  C150.989670,1175.901245 143.093414,1159.877319 136.117294,1143.595337 
  C125.549522,1118.930664 115.687340,1093.930054 106.517105,1068.711670 
  C100.149246,1051.199951 95.270531,1033.133789 90.054062,1015.219971 
  C85.283699,998.838379 80.891983,982.345215 76.444359,965.871216 
  C70.904182,945.350464 65.363869,924.828430 60.034504,904.252380 
  C54.781151,883.969666 49.546318,863.676331 44.758919,843.280640 
  C40.514671,825.198975 36.608555,807.025940 33.088028,788.790039 
  C30.014061,772.867188 27.472178,756.831726 25.116861,740.784119 
  C23.928326,732.686218 23.499523,724.461121 23.032684,716.276123 
  C21.924791,696.851685 19.967453,677.399597 20.292147,657.991089 
  C20.612068,638.867859 23.053766,619.756836 25.044096,600.690552 
  C27.588499,576.316589 33.887840,552.759216 42.030846,529.712952 
  C51.889923,501.809875 64.379028,475.103821 80.413185,450.198517 
  C91.263664,433.344818 102.400375,416.648712 114.088531,400.369934 
  C122.534409,388.606903 131.852707,377.438751 141.220215,366.376434 
  C154.579636,350.599945 168.018677,334.866943 182.021683,319.666199 
  C195.524017,305.008942 209.786499,291.052032 223.713333,276.785797 
  C237.291107,262.877167 250.733322,248.832977 264.479828,235.093231 
  C278.933533,220.646622 293.543640,206.349991 308.335297,192.250031 
  C321.115784,180.067200 333.947632,167.906784 347.287170,156.348587 
  C372.768677,134.269897 398.706299,112.794426 426.539459,93.589752 
  C451.377594,76.451599 477.313477,61.432068 504.666321,48.886559 
  C530.647522,36.970173 557.591064,27.713558 585.898132,23.021101 
  C599.686401,20.735422 613.506714,18.118608 627.414795,17.200348 
  C649.039307,15.772618 670.757019,15.024528 692.423706,15.226208 
  C706.785339,15.359888 721.155518,17.406525 735.469238,19.053768 
  C750.178894,20.746574 764.900085,22.562813 779.478943,25.110647 
  C797.149292,28.198776 814.751099,31.778440 832.246277,35.746258 
  C856.306519,41.202991 880.302307,46.974480 904.207947,53.072906 
  C927.295349,58.962612 950.244995,65.395538 973.233398,71.669495 
  C992.954834,77.051811 1012.768372,82.143234 1032.317505,88.097641 
  C1054.926270,94.983932 1077.511597,102.069099 1099.693604,110.196709 
  C1119.156006,117.327873 1138.194458,125.686760 1157.153198,134.104370 
  C1181.839355,145.064941 1205.381226,158.252014 1227.366455,173.944275 
  C1241.254761,183.857178 1254.737183,194.420166 1267.729736,205.480774 
  C1278.195679,214.390442 1288.149658,224.028076 1297.453857,234.148819 
  C1314.974976,253.207611 1330.864990,273.640350 1343.917358,296.053741 
  C1353.986450,313.344543 1364.269043,330.625946 1372.685181,348.734772 
  C1382.768066,370.429382 1391.610352,392.765198 1399.799683,415.256592 
  C1407.771240,437.149658 1414.667847,459.463806 1421.255493,481.823120 
  C1428.943237,507.916809 1435.933350,534.220154 1442.952393,560.505554 
  C1450.266724,587.896179 1457.531738,615.305908 1464.294312,642.835999 
  C1469.299194,663.210022 1473.674194,683.746826 1477.932983,704.293396 
  C1480.956787,718.882019 1483.702759,733.551514 1485.861206,748.289185 
  C1487.755005,761.218689 1488.906738,774.273682 1489.929688,787.309082 
  C1490.922241,799.959351 1491.619995,812.648315 1491.923828,825.332825 
  C1492.259399,839.334900 1492.752075,853.399658 1491.854980,867.352173 
  C1489.410522,905.370178 1482.247681,942.581238 1468.783569,978.270081 
  C1457.551514,1008.042297 1443.052246,1036.244751 1425.680542,1063.034302 
  C1411.796265,1084.445923 1397.000366,1105.114136 1380.725952,1124.734253 
  C1371.423828,1135.948608 1362.071777,1147.134033 1352.379517,1158.009277 
  C1340.742432,1171.067017 1329.050903,1184.105835 1316.801514,1196.582397 
  C1280.535645,1233.520996 1244.126221,1270.322144 1207.466919,1306.869995 
  C1194.380249,1319.916870 1180.779541,1332.506348 1166.763672,1344.548340 
  C1148.816772,1359.967651 1130.348022,1374.791382 1111.858154,1389.563721 
  C1089.953247,1407.064819 1066.548828,1422.363892 1042.053467,1436.016357 
  C1018.768738,1448.994385 994.649048,1460.085693 969.265564,1468.268188 
  C950.033569,1474.467529 930.518860,1479.640747 910.384705,1481.986572 
  C897.560242,1483.480713 884.727539,1485.143555 871.849854,1485.877808 
  C856.792419,1486.736206 841.660095,1487.324097 826.600525,1486.822266 
  C810.223694,1486.276611 793.870544,1484.571655 777.549438,1482.945923 
  C764.258362,1481.622070 750.964966,1480.063843 737.790405,1477.894409 
  C722.147949,1475.318726 706.558167,1472.309814 691.078430,1468.887451 
  C669.979492,1464.222534 648.987427,1459.066650 627.988098,1453.962769 
  C619.387573,1451.872314 610.887756,1449.367676 601.921021,1447.025635 
M1199.604858,578.014954 
  C1194.918335,558.332825 1186.902832,540.161560 1174.086304,524.427124 
  C1138.312012,480.508301 1091.241211,459.682861 1035.323975,459.161560 
  C963.664612,458.493500 891.994385,458.997925 820.328857,459.008698 
  C818.887024,459.008911 817.445190,459.150177 816.010803,459.225250 
  C816.010803,642.075012 816.010803,824.537598 816.010803,1007.513977 
  C818.148743,1007.513977 820.112427,1007.513977 822.076111,1007.513977 
  C896.074951,1007.513977 970.074646,1007.695618 1044.071899,1007.354309 
  C1058.157349,1007.289368 1072.396973,1006.128174 1086.282104,1003.790344 
  C1123.272583,997.562317 1155.332031,981.089844 1181.439941,954.007324 
  C1219.012695,915.031677 1228.987061,867.822815 1220.339722,815.910095 
  C1213.851685,776.959473 1192.052246,747.647766 1159.885742,725.569763 
  C1158.723511,724.772034 1157.630127,723.873962 1156.340088,722.898132 
  C1158.064087,721.293457 1159.404663,720.054443 1160.735840,718.805542 
  C1178.862915,701.800171 1191.676514,681.557007 1198.202637,657.458191 
  C1205.265869,631.375549 1205.041870,605.153687 1199.604858,578.014954 
M706.051208,771.545349 
  C751.387695,719.951843 762.981140,660.332520 746.238647,594.953552 
  C730.304810,532.732361 666.619141,459.457642 566.156311,459.053009 
  C496.835083,458.773773 427.511810,458.998047 358.189423,459.009155 
  C356.764008,459.009369 355.338593,459.154572 354.037964,459.225342 
  C354.037964,642.152161 354.037964,824.590881 354.037964,1007.168579 
  C395.790619,1007.168579 437.337372,1007.168579 479.326904,1007.168579 
  C479.326904,949.742493 479.326904,892.660095 479.326904,835.167236 
  C481.564636,835.167236 483.362701,835.167236 485.160797,835.167236 
  C509.990204,835.167236 534.823608,835.432190 559.647217,835.052551 
  C571.601074,834.869812 583.654846,834.259338 595.458923,832.483643 
  C639.477234,825.861755 675.907593,805.041565 706.051208,771.545349 
z"/>
<path fill="#FFFFFF" opacity="1.000000" stroke="none" 
  d="
M1199.713379,578.419312 
  C1205.041870,605.153687 1205.265869,631.375549 1198.202637,657.458191 
  C1191.676514,681.557007 1178.862915,701.800171 1160.735840,718.805542 
  C1159.404663,720.054443 1158.064087,721.293457 1156.340088,722.898132 
  C1157.630127,723.873962 1158.723511,724.772034 1159.885742,725.569763 
  C1192.052246,747.647766 1213.851685,776.959473 1220.339722,815.910095 
  C1228.987061,867.822815 1219.012695,915.031677 1181.439941,954.007324 
  C1155.332031,981.089844 1123.272583,997.562317 1086.282104,1003.790344 
  C1072.396973,1006.128174 1058.157349,1007.289368 1044.071899,1007.354309 
  C970.074646,1007.695618 896.074951,1007.513977 822.076111,1007.513977 
  C820.112427,1007.513977 818.148743,1007.513977 816.010803,1007.513977 
  C816.010803,824.537598 816.010803,642.075012 816.010803,459.225250 
  C817.445190,459.150177 818.887024,459.008911 820.328857,459.008698 
  C891.994385,458.997925 963.664612,458.493500 1035.323975,459.161560 
  C1091.241211,459.682861 1138.312012,480.508301 1174.086304,524.427124 
  C1186.902832,540.161560 1194.918335,558.332825 1199.713379,578.419312 
M1097.137329,829.435303 
  C1094.014404,802.511108 1074.266846,785.089172 1046.540649,785.019165 
  C1012.894653,784.934204 979.248291,784.995422 945.602112,785.011536 
  C944.179749,785.012207 942.757507,785.196899 941.473022,785.286316 
  C941.473022,820.304321 941.473022,854.870117 941.473022,889.563171 
  C942.399475,889.675476 943.037659,889.820312 943.675903,889.820496 
  C978.154907,889.832703 1012.634399,889.936584 1047.112549,889.765869 
  C1056.514893,889.719360 1065.686768,887.754456 1073.803467,882.707214 
  C1093.352539,870.550964 1099.030151,852.085876 1097.137329,829.435303 
M978.499756,673.508301 
  C995.657349,673.508301 1012.815369,673.572021 1029.972168,673.458923 
  C1033.776367,673.433838 1037.661011,673.171204 1041.364380,672.359558 
  C1065.823120,666.999268 1080.574829,645.463623 1077.848389,619.370544 
  C1075.201904,594.042664 1056.335083,576.888733 1030.955322,576.846558 
  C1002.637085,576.799500 974.318665,576.832642 946.000366,576.844788 
  C944.542725,576.845398 943.085083,576.976929 941.404175,577.058350 
  C941.404175,609.204468 941.404175,641.090942 941.404175,673.508240 
  C953.586548,673.508240 965.543091,673.508240 978.499756,673.508301 
z"/>
<path fill="#FFFFFF" opacity="1.000000" stroke="none" 
  d="
M705.804199,771.798706 
  C675.907593,805.041565 639.477234,825.861755 595.458923,832.483643 
  C583.654846,834.259338 571.601074,834.869812 559.647217,835.052551 
  C534.823608,835.432190 509.990204,835.167236 485.160797,835.167236 
  C483.362701,835.167236 481.564636,835.167236 479.326904,835.167236 
  C479.326904,892.660095 479.326904,949.742493 479.326904,1007.168579 
  C437.337372,1007.168579 395.790619,1007.168579 354.037964,1007.168579 
  C354.037964,824.590881 354.037964,642.152161 354.037964,459.225342 
  C355.338593,459.154572 356.764008,459.009369 358.189423,459.009155 
  C427.511810,458.998047 496.835083,458.773773 566.156311,459.053009 
  C666.619141,459.457642 730.304810,532.732361 746.238647,594.953552 
  C762.981140,660.332520 751.387695,719.951843 705.804199,771.798706 
M479.165405,700.497070 
  C479.165405,705.965332 479.165405,711.433594 479.165405,717.042603 
  C480.279266,717.231750 481.075317,717.484436 481.871521,717.485107 
  C508.348206,717.505737 534.826538,717.682861 561.301025,717.441345 
  C580.108337,717.269836 596.469055,710.777771 609.238647,696.603638 
  C625.116333,678.979553 629.891968,658.044800 626.901428,634.974609 
  C622.516479,601.147156 594.932678,576.840576 561.003540,576.836182 
  C535.525940,576.832886 510.048370,576.835571 484.570801,576.835571 
  C482.835724,576.835571 481.100647,576.835571 479.165436,576.835571 
  C479.165436,618.267639 479.165436,658.882812 479.165405,700.497070 
z"/>
<path fill="#101547" opacity="1.000000" stroke="none" 
  d="
M1097.155518,829.876709 
  C1099.030151,852.085876 1093.352539,870.550964 1073.803467,882.707214 
  C1065.686768,887.754456 1056.514893,889.719360 1047.112549,889.765869 
  C1012.634399,889.936584 978.154907,889.832703 943.675903,889.820496 
  C943.037659,889.820312 942.399475,889.675476 941.473022,889.563171 
  C941.473022,854.870117 941.473022,820.304321 941.473022,785.286316 
  C942.757507,785.196899 944.179749,785.012207 945.602112,785.011536 
  C979.248291,784.995422 1012.894653,784.934204 1046.540649,785.019165 
  C1074.266846,785.089172 1094.014404,802.511108 1097.155518,829.876709 
z"/>
<path fill="#101547" opacity="1.000000" stroke="none" 
  d="
M977.999756,673.508301 
  C965.543091,673.508240 953.586548,673.508240 941.404175,673.508240 
  C941.404175,641.090942 941.404175,609.204468 941.404175,577.058350 
  C943.085083,576.976929 944.542725,576.845398 946.000366,576.844788 
  C974.318665,576.832642 1002.637085,576.799500 1030.955322,576.846558 
  C1056.335083,576.888733 1075.201904,594.042664 1077.848389,619.370544 
  C1080.574829,645.463623 1065.823120,666.999268 1041.364380,672.359558 
  C1037.661011,673.171204 1033.776367,673.433838 1029.972168,673.458923 
  C1012.815369,673.572021 995.657349,673.508301 977.999756,673.508301 
z"/>
<path fill="#101547" opacity="1.000000" stroke="none" 
  d="
M479.165405,699.997559 
  C479.165436,658.882812 479.165436,618.267639 479.165436,576.835571 
  C481.100647,576.835571 482.835724,576.835571 484.570801,576.835571 
  C510.048370,576.835571 535.525940,576.832886 561.003540,576.836182 
  C594.932678,576.840576 622.516479,601.147156 626.901428,634.974609 
  C629.891968,658.044800 625.116333,678.979553 609.238647,696.603638 
  C596.469055,710.777771 580.108337,717.269836 561.301025,717.441345 
  C534.826538,717.682861 508.348206,717.505737 481.871521,717.485107 
  C481.075317,717.484436 480.279266,717.231750 479.165405,717.042603 
  C479.165405,711.433594 479.165405,705.965332 479.165405,699.997559 
z"/>
</svg>